<svg fill="none" height="30" viewBox="0 0 88 30" width="88" xmlns="http://www.w3.org/2000/svg" xmlns:xlink="http://www.w3.org/1999/xlink"><clipPath id="a"><path d="m0 0h88v30h-88z"/></clipPath><g clip-path="url(#a)" fill="#fff"><path d="m88.012 1.51785h-16.5443l-1.4909 7.2371-2.8857-7.2371h-4.4511c-.3904.00867-.7667.14891-1.0691.39842s-.5135.59395-.5997.97857l-1.5944 7.77136-1.8035-9.14107h-4.9104c-.2795.00049-.5548.06894-.8026.19955-.2477.13062-.4607.31957-.621.55088l-5.9853 8.41014c-.1599.23-.3724.4178-.6193.5476-.2469.1297-.5211.1976-.7994.1979h-3.3402l1.5992-7.83694c.0173-.09861.0262-.19855.0264-.29871.0013-.23313-.0429-.46424-.1301-.68011-.0872-.21588-.2156-.4123-.3779-.57805-.1624-.16575-.3554-.29759-.5682-.38798-.2128-.0904-.4412-.13758-.672-.13885h-2.573l-1.2481 6.03011c-.0695-1.80482-.8355-3.51052-2.1343-4.75226-1.2987-1.24174-3.027-1.92092-4.8153-1.892276-4.1529 0-7.7767 3.399986-8.0942 7.594106-.3174 4.19416 2.7943 7.59166 6.9448 7.59166 3.1526 0 5.9949-1.9574 7.3247-4.7332l-.3607 1.7655c-.0544.1753-.0819.3579-.0817.5416-.0016.2333.0424.4647.1294.6808.087.2162.2154.4129.3777.5789.1624.166.3556.2981.5685.3886.213.0906.4415.1378.6726.1391h9.8087c.2761.0006.5483-.0651.7942-.1918.2458-.1267.4583-.3107.6198-.5368l5.4587-7.7155.6252 3.2397c-.7767.4541-2.2003 2.1857-1.2336 2.1857.466.0023.9169.1672 1.2763.4668.3594.2997.6051.7156.6955 1.1773l.267 1.3843h7.7335l1.5582-7.5868 3.1983 7.5674h4.0375c.4096-.002.8057-.1488 1.1193-.415.3137-.2662.5251-.6349.5976-1.0421l1.5342-7.47758c.083-.39552.2978-.75035.6085-1.00534s.6985-.39473 1.0989-.39594h1.89l-2.1209 10.33596h3.3377c.398-.0083.7813-.153 1.0872-.4102.3058-.2573.516-.6119.5961-1.0057l1.8372-8.91763h2.3398c.3999-.00321.7868-.14404 1.0967-.39925.31-.2552.5245-.60951.6082-1.00446zm-55.5774 6.75868c-.0988.97913-.5468 1.88857-1.2604 2.55877-.7137.6703-1.6443 1.0555-2.6184 1.0841-.4106.0123-.8191-.0646-1.1977-.2255s-.7187-.4021-.997-.7072c-.2784-.3051-.4887-.667-.6166-1.06122-.1279-.39426-.1705-.81165-.1248-1.22396.0993-.97893.5474-1.88808 1.2609-2.55821s1.6439-1.05559 2.6178-1.08462c.4077-.00798.8125.06973 1.1888.22818s.7158.39418.9971.69224c.276.30942.4853.67347.6145 1.069.1291.39552.1754.81386.1358 1.22842z"/><path d="m15.7267 17.4031-.0193-.034c-1.5101-2.7807-2.383-5.1-2.383-8.79628-.0281-2.42621.6885-4.80166 2.0512-6.79997.0524-.08875.1094-.17467.1707-.25743.1356-.14542.2314-.32405.2778-.518262.0464-.194209.0418-.397278-.0133-.58916-.0576-.118982-.1463-.219841-.2565-.29173-.1101-.0718882-.2376-.11208552-.3687-.116268h-8.02208c-.42221.00240645-.82941.158412-1.14696.43942-.31756.281008-.52419.66819-.58202 1.09057l-5.3961456 26.30861c-.0250594.1231-.03794774.2483-.03847517.374-.0015838.2333.04239657.4647.12942577.6808.087029.2162.215399.4129.377768.5789s.355552.2981.568497.3886c.21295.0906.44148.1378.67253.1391h7.0121c2.64516 0 8.59196-3.553 8.59196-7.6111.089-1.7704-1.1687-4.199-1.6255-4.9858zm-5.94927-3.6647c-.07589.3746-.27584.712-.56695.9566-.2911.2445-.656.3816-1.03458.3888h-3.17902l1.87567-9.03911h4.50155zm2.05117-10.11499c-.079.37499-.2825.71143-.5769.9535s-.6618.37522-1.0414.37735h-3.1574l.64206-3.08913h4.49434z"/><path d="m31.8118 29.1913-.1635-1.7h-3.3089l-.9498 1.7h-1.8997l5.5741-9.6535h1.426l1.2023 9.6535zm-.6324-6.8-1.9719 3.5141h2.3158z"/><path d="m34.5339 29.1913 1.5967-7.0647h1.7026l-1.5992 7.0647zm2.6452-7.9462c-.1344.0029-.2677-.0265-.3885-.0861-.1209-.0595-.2259-.1473-.3064-.2561-.0805-.1089-.134-.2355-.1562-.3695-.0222-.1339-.0123-.2713.0287-.4006.0755-.3016.2447-.5709.4827-.7684.2379-.1975.5323-.3129.8399-.3293.5891 0 .9618.4857.8104 1.0977-.0722.302-.238.5728-.4734.7729-.2353.2001-.5278.319-.8348.3394z"/><path d="m40.1586 29.2738c-1.0701 0-2.0128-.1214-2.6717-1.0175l1.3707-1.1536c.4329.5829 1.1471.6654 1.6689.6654.5891 0 1.2504-.204 1.3683-.7285.0817-.3546-.0481-.5975-.57-.6533l-1.0484-.1069c-1.2024-.1214-1.8348-.6775-1.5414-1.9792.3318-1.4572 1.753-2.2538 3.1261-2.2538 1.0605 0 1.9069.1919 2.4047.8282l-1.2937 1.0977c-.3078-.3643-.885-.4857-1.4741-.4857-.6805 0-1.0413.3254-1.1206.6776-.0601.2574-.0216.5561.5675.6119l1.0485.1069c1.3153.136 1.8275.8816 1.5582 2.0764-.3391 1.5689-1.7891 2.3144-3.393 2.3144z"/><path d="m46.2111 29.1913c-1.3995 0-1.7578-1.0152-1.5318-2.0206l1.7314-7.6329h1.7025l-1.7025 7.5285c-.0962.4201.024.6363.4569.6363h.654l-.339 1.4911z"/><path d="m51.8357 29.1913.1395-.6096c-.4963.4614-1.1536.7051-1.8276.6776-.7743 0-1.2889-.204-1.5991-.6241-.1424-.2351-.2342-.4978-.2694-.771s-.0131-.5509.065-.8149c.2549-1.1244 1.2024-2.0473 2.7919-2.0473h1.6087l.0794-.3521c.1755-.7747-.1131-1.1123-1.0172-1.1123-.2682-.0162-.5366.0276-.786.1284-.2494.1007-.4737.2559-.6568.4545l-.8273-1.0977c.8393-.7602 1.5439-.9715 2.6813-.9715 1.9093 0 2.7125.8427 2.3398 2.4966l-1.0533 4.6507zm.6373-2.9823h-1.3491c-.6132 0-1.022.2987-1.135.799s.1299.8136.796.8136c.4121.0436.8247-.0776 1.1494-.3376.2489-.2368.4087-.5535.4521-.8961z"/><path d="m59.0979 29.1913.9619-4.2718c.2164-.9714-.2982-1.2872-.8344-1.2872-.5363 0-1.2024.3255-1.4284 1.2872l-.9619 4.2718h-1.7025l1.5991-7.0647h1.6616l-.1466.6509c.516-.4598 1.1779-.7182 1.866-.7286.6805 0 1.1783.2429 1.4669.6242.4208.5707.416 1.2361.2404 2.0084l-1.0219 4.5147z"/><path d="m64.5663 29.1913c-1.3851 0-1.7458-1.0152-1.5174-2.0206l.7912-3.4971h-.7214l.3053-1.3309h.7215l.4809-2.0885h1.7001l-.4809 2.0885h1.2023l-.3029 1.343h-1.2024l-.7671 3.4c-.0914.4056.0385.6363.4449.6363h.6156l-.3391 1.4911z"/><path d="m68.8105 26.209c-.2068.9083.1804 1.5737 1.1351 1.5737.3122.0086.6229-.0458.914-.1601s.5568-.286.7813-.5053l.7959 1.0443c-.856.7285-1.6111 1.1123-2.8399 1.1123-1.6112 0-2.9818-.7602-2.335-3.621.5218-2.3047 2.02-3.6089 3.785-3.6089 1.8973 0 2.6452 1.4402 2.2051 3.3782l-.1779.7868zm2.8857-1.9671c-.0427-.2225-.1664-.4207-.3467-.5556-.1803-.1348-.4041-.1966-.6272-.173-.2603.0015-.5161.0689-.7438.1962s-.4202.3104-.5596.5324c-.151.233-.2624.4899-.3294.7601h2.5923c.0525-.2503.0549-.5088.0072-.7601z"/><path d="m75.9886 29.2738c-1.0725 0-2.0127-.1214-2.674-1.0175l1.3731-1.1536c.4304.5829 1.1446.6654 1.6664.6654.5892 0 1.2505-.204 1.3707-.7285.0794-.3546-.0481-.5975-.5723-.6533l-1.0485-.1069c-1.2023-.1214-1.8348-.6775-1.5414-1.9792.3319-1.4572 1.753-2.2538 3.1381-2.2538 1.0605 0 1.907.1919 2.4168.8282l-1.2914 1.0953c-.3078-.3643-.8849-.4857-1.474-.4857-.6806 0-1.0413.3254-1.1206.6775-.0601.2575-.0217.5562.5675.612l1.0484.1069c1.3154.136 1.8276.8815 1.5583 2.0764-.3535 1.5713-1.8035 2.3168-3.4171 2.3168z"/><path d="m24.7324 1.19485c.2405-.17728.998-.65571 1.0533-1.19485h-5.3096c-1.0366.00034832-2.0367.386878-2.8087 1.08557-.9708.98232-1.7375 2.15069-2.2549 3.43646-.5174 1.28576-.7752 2.66299-.7582 4.05079 0 3.28098.7214 5.37678 2.2196 8.15028 0 0 1.8251 3.1304 1.8083 5.6779-.0032.2843-.0298.5678-.0794.8476-.6841 2.295-2.1589 4.2669-4.1577 5.559-.2405.1773-.9979.6533-1.0533 1.1924h6.2787c1.0363.0018 2.0364-.385 2.8063-1.0856 1.6116-1.7871 2.5036-4.118 2.5009-6.5352 0-4.0144-2.1642-6.7587-3.0828-8.2571-1.0306-1.7048-1.5811-3.6612-1.5919-5.65857-.0313-1.75828 1.2769-5.27483 4.4294-7.26868z"/></g></svg>