<svg fill="none" height="34" viewBox="0 0 112 34" width="112" xmlns="http://www.w3.org/2000/svg"><g fill="#404040"><path d="m104.294.304932h7.136c.379 0 .57.149484.57.445134v30.983434c0 .2969-.191.4451-.57.4451h-7.136c-.382 0-.572-.1482-.572-.4451v-30.983434c0-.29565.19-.445134.572-.445134z"/><path d="m22.2355 12.0419c-.2857.681-.6943 1.1992-1.2271 1.5546-.6471.4153-1.2371.6226-1.7686.6226h-10.33444c-.41856 0-.62651-.1475-.62651-.4452v-7.24571c0-.29565.18868-.44514.57003-.44514h11.18882c.8365.08969 1.5607.62452 2.1699 1.60116.1907.29764.3129.61522.3714.95538.0571.34282.0857.72019.0857 1.1341 0 .82911-.1442 1.58591-.4292 2.26821zm5.624 5.0891c.57-.4889 1.1214-1.0291 1.6556-1.6217.7993-1.1859 1.1986-3.0821 1.1986-5.69176v-1.02116c-.1137-2.81564-1.0278-4.91907-2.7406-6.31294-.9899-.80058-1.9985-1.36265-3.0249-1.689524-1.0278-.324218-2.0756-.488984-3.1399-.488984h-21.237599c-.381354 0-.570701.149485-.570701.445135v30.983433c0 .2969.189347.4451.570701.4451h1.247709c1.66826-1.2304 3.83414-2.7392 6.46044-4.4122v-6.9241c0-.2957.18868-.4438.57003-.4438h6.96472c1.154.1249 2.0277.6278 2.6323 1.4882 2.609-1.3673 5.4632-2.7585 8.5339-4.1338.3316-.2013.6285-.4079.8797-.6219z"/><path d="m31.7701 31.5787c-.2093-.192-.3535-.4073-.4285-.6451l-3.1392-7.5115c-.3063-.7116-.6385-1.4019-.9993-2.0676-.0737-.1362-.1654-.2817-.2617-.4252-2.7831.9069-5.3191 1.8477-7.6145 2.7951l3.2794 7.2092c.0771.2079.2485.4657.5142.7773.2664.3116.5149.4671.7421.4671h7.8783c.2285 0 .3428-.0738.3428-.2219 0-.0592-.105-.1841-.3136-.3774z"/><path d="m7.79788 32.1924c.38823.0187.5794-.1137.56689-.3994l-.10185-2.3923c-1.77341.9471-3.22297 1.8336-4.36167 2.5992z"/><path d="m43.2837.750067c0-.29565-.1907-.445135-.5707-.445135h-7.1361c-.3814 0-.5701.149485-.5701.445135v13.666333c2.6303-1.0092 5.3882-1.9892 8.2769-2.922z"/><path d="m65.3772.304932h-7.1361c-.3807 0-.5701.149485-.5701.445134v6.805924c2.6768-.60592 5.436-1.16134 8.2769-1.65431v-5.151614c0-.295649-.1907-.445134-.5707-.445134z"/><path d="m57.671 22.3982c0 .3867-.105.8086-.3149 1.2677-.2087.4597-.495.8889-.8558 1.2902-.362.398-.8085.7394-1.342 1.0211s-1.1235.4213-1.7693.4213h-5.9947c-.6849 0-1.2849-.1396-1.7971-.4213-.5149-.2817-.9428-.6231-1.2843-1.0211-.3434-.4013-.6006-.8305-.772-1.2902-.1714-.4591-.2571-.8664-.2571-1.2238v-5.6924c-2.9326.5693-5.6891 1.1885-8.2768 1.8476v5.0015c0 .8304.1421 1.6078.4265 2.3339.2857.7269.6757 1.4145 1.1713 2.0676.4936.5926 1.1042 1.17 1.827 1.7334.5701.4451 1.2564.8603 2.0556 1.2443.7601.3867 1.6836.6824 2.7678.889 1.0856.2086 2.2563.3116 3.5106.3116h6.681c.9886 0 1.9022-.0665 2.7406-.2013.8358-.1322 1.5972-.2884 2.2835-.4658.6836-.2066 1.4065-.467 2.1679-.7773.7613-.3116 1.4277-.689 1.9984-1.1341.5315-.4438 1.0185-.9268 1.4563-1.4443.4372-.5176.7707-1.0146.9986-1.4896.2658-.5036.4757-1.1627.6279-1.9792.1521-.8132.2278-1.7553.2278-2.8223v-8.0177c-2.8734.1986-5.6253.4504-8.2768.7408z"/><path d="m97.2448 13.2863h-14.5526c-4.1298 0-8.0596.1009-11.8227.2803v18.1668c0 .297.1907.4452.5727.4452h7.1348c.3807 0 .5707-.1482.5707-.4452v-12.1794c0-.3262.1893-.4896.5707-.4896h17.5264c.38 0 .5707-.1475.5707-.4452v-4.8905c0-.2943-.1907-.4424-.5707-.4424z"/><g opacity=".25"><path d="m0 31.7335c0 .2352.12291.3727.35943.4219 1.47625-1.0425 4.12647-2.8084 7.91875-4.9557v-2.4396c-3.60028 2.4357-6.36875 4.557-8.27818 6.1004z" opacity=".0625"/><path d="m15.8136 20.3985c1.154.1249 2.0277.6278 2.6323 1.4882 2.609-1.3673 5.4632-2.7585 8.5339-4.1338.3316-.2013.6286-.4079.8797-.6219.57-.4889 1.1215-1.0291 1.6556-1.6217.5123-.7607.8584-1.8158 1.0411-3.1598-5.8744 2.6648-11.0254 5.4306-15.4136 8.049z" opacity=".0625"/><path d="m34.9617 14.4721c2.6392-1.0525 5.404-2.0775 8.298-3.0585l.0716-4.24366c-2.8924 1.07002-5.6606 2.18241-8.3024 3.32416z" opacity=".0625"/><path d="m57.6709 2.86745v4.68853c2.6768-.60591 5.436-1.16134 8.2768-1.65497v-4.89582c-2.8375.56339-5.6 1.18459-8.2768 1.86226z" opacity=".0625"/></g><path d="m99.1296.304932h-3.1784v.001328c-57.3307.024582-91.68121 28.45944-95.57913 31.85374 1.06035-.014 1.60116.0186 1.60116.0186s33.03367-26.09555 94.05107-26.09555h3.1053c.3794 0 .5707-.14749.5707-.44381v-4.889174c0-.29565-.1913-.445134-.5707-.445134z"/></g></svg>